# xmcd CD database file
#
# Track frame offsets:
#	150
#	16357
#	50330
#	64862
#	101622
#	136337
#	169147
#	187072
#	211587
#	252555
#
# Disc length: 3536 seconds
#
# Revision: 1
# Processed by: cddbd v1.5.1PL2 Copyright (c) Steve Scherf et al.
# Submitted via: CDex 1.51
#
DISCID=8c0dce0a
DTITLE=Judi Silvano and Mal Waldron - Riding A Zephyr
DYEAR=2000
DGENRE=Jazz
TTITLE0=You
TTITLE1=Finding My Love
TTITLE2=Cattin'
TTITLE3=Soul Eyes
TTITLE4=Eyes On You
TTITLE5=Riding The Zephyr
TTITLE6=A Time For Duke
TTITLE7=All Night Through
TTITLE8=Dust
TTITLE9=Mal Waldron
EXTD=YEAR: 2000
EXTT0=
EXTT1=
EXTT2=
EXTT3=
EXTT4=
EXTT5=
EXTT6=
EXTT7=
EXTT8=
EXTT9=
PLAYORDER=
